<svg width="229" height="46" viewBox="0 0 229 46" fill="none" xmlns="http://www.w3.org/2000/svg">
<g opacity="0.75">
<g clip-path="url(#clip0)">
<rect x="-0.229004" y="12" width="229.229" height="1.002" fill="#ED2225"/>
<rect x="-0.229004" y="13.002" width="229.229" height="1.002" fill="#F99621"/>
<rect x="-0.229004" y="14.004" width="229.229" height="1.002" fill="#F1EB1B"/>
<rect x="-0.229004" y="15.006" width="229.229" height="1.002" fill="#0C9B49"/>
<rect x="-0.229004" y="16.008" width="229.229" height="1.002" fill="#3954A5"/>
<rect x="-0.229004" y="17.01" width="229.229" height="1.002" fill="#93298E"/>
</g>
</g>
<path d="M53.6171 15.732V22.332C52.7531 22.956 51.8291 23.424 50.8451 23.736C49.8691 24.04 48.7971 24.192 47.6291 24.192C46.2451 24.192 44.9971 23.98 43.8851 23.556C42.7731 23.124 41.8211 22.524 41.0291 21.756C40.2451 20.98 39.6411 20.052 39.2171 18.972C38.7931 17.892 38.5811 16.704 38.5811 15.408C38.5811 14.096 38.7851 12.9 39.1931 11.82C39.6091 10.74 40.1971 9.816 40.9571 9.048C41.7171 8.272 42.6411 7.672 43.7291 7.248C44.8171 6.824 46.0331 6.612 47.3771 6.612C48.0571 6.612 48.6891 6.664 49.2731 6.768C49.8571 6.864 50.3971 7.008 50.8931 7.2C51.3891 7.384 51.8491 7.612 52.2731 7.884C52.6971 8.148 53.0931 8.448 53.4611 8.784L52.8011 9.84C52.6971 10 52.5611 10.104 52.3931 10.152C52.2331 10.192 52.0531 10.152 51.8531 10.032C51.6611 9.92 51.4411 9.784 51.1931 9.624C50.9451 9.464 50.6411 9.312 50.2811 9.168C49.9291 9.016 49.5091 8.888 49.0211 8.784C48.5411 8.68 47.9691 8.628 47.3051 8.628C46.3371 8.628 45.4611 8.788 44.6771 9.108C43.8931 9.42 43.2251 9.872 42.6731 10.464C42.1211 11.048 41.6971 11.76 41.4011 12.6C41.1051 13.432 40.9571 14.368 40.9571 15.408C40.9571 16.488 41.1091 17.456 41.4131 18.312C41.7251 19.16 42.1651 19.884 42.7331 20.484C43.3091 21.076 44.0051 21.528 44.8211 21.84C45.6371 22.152 46.5531 22.308 47.5691 22.308C48.3691 22.308 49.0771 22.22 49.6931 22.044C50.3171 21.86 50.9251 21.608 51.5171 21.288V17.508H48.8411C48.6891 17.508 48.5651 17.464 48.4691 17.376C48.3811 17.288 48.3371 17.18 48.3371 17.052V15.732H53.6171ZM77.5718 17.616L74.8718 10.62C74.7918 10.412 74.7078 10.172 74.6197 9.9C74.5317 9.62 74.4478 9.324 74.3678 9.012C74.1997 9.66 74.0277 10.2 73.8517 10.632L71.1517 17.616H77.5718ZM82.4198 24H80.6198C80.4118 24 80.2438 23.948 80.1157 23.844C79.9878 23.74 79.8918 23.608 79.8278 23.448L78.2197 19.296H70.5037L68.8957 23.448C68.8477 23.592 68.7557 23.72 68.6197 23.832C68.4837 23.944 68.3157 24 68.1157 24H66.3157L73.1918 6.804H75.5438L82.4198 24ZM100.85 17.148V24H98.5224V17.148L92.2224 6.804H94.2624C94.4704 6.804 94.6344 6.856 94.7544 6.96C94.8744 7.056 94.9784 7.184 95.0664 7.344L99.0024 14.028C99.1464 14.308 99.2784 14.572 99.3984 14.82C99.5184 15.06 99.6224 15.304 99.7104 15.552C99.7984 15.304 99.8984 15.06 100.01 14.82C100.122 14.572 100.246 14.308 100.382 14.028L104.306 7.344C104.378 7.208 104.478 7.084 104.606 6.972C104.734 6.86 104.898 6.804 105.098 6.804H107.15L100.85 17.148ZM138.663 6.804V24H136.623V11.364C136.623 11.196 136.627 11.016 136.635 10.824C136.651 10.632 136.667 10.436 136.683 10.236L130.779 20.988C130.595 21.348 130.315 21.528 129.939 21.528H129.603C129.227 21.528 128.947 21.348 128.763 20.988L122.739 10.188C122.787 10.612 122.811 11.004 122.811 11.364V24H120.771V6.804H122.487C122.695 6.804 122.855 6.824 122.967 6.864C123.079 6.904 123.187 7.016 123.291 7.2L129.231 17.784C129.327 17.976 129.419 18.176 129.507 18.384C129.603 18.592 129.691 18.804 129.771 19.02C129.851 18.804 129.935 18.592 130.023 18.384C130.111 18.168 130.207 17.964 130.311 17.772L136.143 7.2C136.239 7.016 136.343 6.904 136.455 6.864C136.575 6.824 136.739 6.804 136.947 6.804H138.663ZM165.068 22.104L165.056 24H154.46V6.804H165.056V8.7H156.788V14.412H163.484V16.236H156.788V22.104H165.068ZM188.508 9.492C188.436 9.612 188.356 9.704 188.268 9.768C188.188 9.824 188.088 9.852 187.968 9.852C187.832 9.852 187.672 9.784 187.488 9.648C187.304 9.512 187.072 9.364 186.792 9.204C186.52 9.036 186.188 8.884 185.796 8.748C185.412 8.612 184.944 8.544 184.392 8.544C183.872 8.544 183.412 8.616 183.012 8.76C182.62 8.896 182.288 9.084 182.016 9.324C181.752 9.564 181.552 9.848 181.416 10.176C181.28 10.496 181.212 10.844 181.212 11.22C181.212 11.7 181.328 12.1 181.56 12.42C181.8 12.732 182.112 13 182.496 13.224C182.888 13.448 183.328 13.644 183.816 13.812C184.312 13.972 184.816 14.14 185.328 14.316C185.848 14.492 186.352 14.692 186.84 14.916C187.336 15.132 187.776 15.408 188.16 15.744C188.552 16.08 188.864 16.492 189.096 16.98C189.336 17.468 189.456 18.068 189.456 18.78C189.456 19.532 189.328 20.24 189.072 20.904C188.816 21.56 188.44 22.132 187.944 22.62C187.456 23.108 186.852 23.492 186.132 23.772C185.42 24.052 184.608 24.192 183.696 24.192C182.576 24.192 181.56 23.992 180.648 23.592C179.736 23.184 178.956 22.636 178.308 21.948L178.98 20.844C179.044 20.756 179.12 20.684 179.208 20.628C179.304 20.564 179.408 20.532 179.52 20.532C179.624 20.532 179.74 20.576 179.868 20.664C180.004 20.744 180.156 20.848 180.324 20.976C180.492 21.104 180.684 21.244 180.9 21.396C181.116 21.548 181.36 21.688 181.632 21.816C181.912 21.944 182.228 22.052 182.58 22.14C182.932 22.22 183.328 22.26 183.768 22.26C184.32 22.26 184.812 22.184 185.244 22.032C185.676 21.88 186.04 21.668 186.336 21.396C186.64 21.116 186.872 20.784 187.032 20.4C187.192 20.016 187.272 19.588 187.272 19.116C187.272 18.596 187.152 18.172 186.912 17.844C186.68 17.508 186.372 17.228 185.988 17.004C185.604 16.78 185.164 16.592 184.668 16.44C184.172 16.28 183.668 16.12 183.156 15.96C182.644 15.792 182.14 15.6 181.644 15.384C181.148 15.168 180.708 14.888 180.324 14.544C179.94 14.2 179.628 13.772 179.388 13.26C179.156 12.74 179.04 12.1 179.04 11.34C179.04 10.732 179.156 10.144 179.388 9.576C179.628 9.008 179.972 8.504 180.42 8.064C180.876 7.624 181.432 7.272 182.088 7.008C182.752 6.744 183.512 6.612 184.368 6.612C185.328 6.612 186.2 6.764 186.984 7.068C187.776 7.372 188.472 7.812 189.072 8.388L188.508 9.492Z" fill="white"/>
<path d="M47.7552 38.177V42.027C47.2512 42.391 46.7122 42.664 46.1382 42.846C45.5688 43.0233 44.9435 43.112 44.2622 43.112C43.4548 43.112 42.7268 42.9883 42.0782 42.741C41.4295 42.489 40.8742 42.139 40.4122 41.691C39.9548 41.2383 39.6025 40.697 39.3552 40.067C39.1078 39.437 38.9842 38.744 38.9842 37.988C38.9842 37.2227 39.1032 36.525 39.3412 35.895C39.5838 35.265 39.9268 34.726 40.3702 34.278C40.8135 33.8253 41.3525 33.4753 41.9872 33.228C42.6218 32.9807 43.3312 32.857 44.1152 32.857C44.5118 32.857 44.8805 32.8873 45.2212 32.948C45.5618 33.004 45.8768 33.088 46.1662 33.2C46.4555 33.3073 46.7238 33.4403 46.9712 33.599C47.2185 33.753 47.4495 33.928 47.6642 34.124L47.2792 34.74C47.2185 34.8333 47.1392 34.894 47.0412 34.922C46.9478 34.9453 46.8428 34.922 46.7262 34.852C46.6142 34.7867 46.4858 34.7073 46.3412 34.614C46.1965 34.5207 46.0192 34.432 45.8092 34.348C45.6038 34.2593 45.3588 34.1847 45.0742 34.124C44.7942 34.0633 44.4605 34.033 44.0732 34.033C43.5085 34.033 42.9975 34.1263 42.5402 34.313C42.0828 34.495 41.6932 34.7587 41.3712 35.104C41.0492 35.4447 40.8018 35.86 40.6292 36.35C40.4565 36.8353 40.3702 37.3813 40.3702 37.988C40.3702 38.618 40.4588 39.1827 40.6362 39.682C40.8182 40.1767 41.0748 40.599 41.4062 40.949C41.7422 41.2943 42.1482 41.558 42.6242 41.74C43.1002 41.922 43.6345 42.013 44.2272 42.013C44.6938 42.013 45.1068 41.9617 45.4662 41.859C45.8302 41.7517 46.1848 41.6047 46.5302 41.418V39.213H44.9692C44.8805 39.213 44.8082 39.1873 44.7522 39.136C44.7008 39.0847 44.6752 39.0217 44.6752 38.947V38.177H47.7552ZM55.0787 39.276L53.5037 35.195C53.457 35.0737 53.408 34.9337 53.3567 34.775C53.3054 34.6117 53.2564 34.439 53.2097 34.257C53.1117 34.635 53.0114 34.95 52.9087 35.202L51.3337 39.276H55.0787ZM57.9067 43H56.8567C56.7354 43 56.6374 42.9697 56.5627 42.909C56.488 42.8483 56.432 42.7713 56.3947 42.678L55.4567 40.256H50.9557L50.0177 42.678C49.9897 42.762 49.936 42.8367 49.8567 42.902C49.7774 42.9673 49.6794 43 49.5627 43H48.5127L52.5237 32.969H53.8957L57.9067 43ZM62.0079 39.003V43H60.6499V39.003L56.9749 32.969H58.1649C58.2863 32.969 58.3819 32.9993 58.4519 33.06C58.5219 33.116 58.5826 33.1907 58.6339 33.284L60.9299 37.183C61.0139 37.3463 61.0909 37.5003 61.1609 37.645C61.2309 37.785 61.2916 37.9273 61.3429 38.072C61.3943 37.9273 61.4526 37.785 61.5179 37.645C61.5833 37.5003 61.6556 37.3463 61.7349 37.183L64.0239 33.284C64.0659 33.2047 64.1243 33.1323 64.1989 33.067C64.2736 33.0017 64.3693 32.969 64.4859 32.969H65.6829L62.0079 39.003ZM75.7044 41.859V43H70.0134V32.969H71.3644V41.859H75.7044ZM83.3928 41.894L83.3858 43H77.2048V32.969H83.3858V34.075H78.5628V37.407H82.4688V38.471H78.5628V41.894H83.3928ZM90.6119 39.276L89.0369 35.195C88.9902 35.0737 88.9412 34.9337 88.8899 34.775C88.8386 34.6117 88.7896 34.439 88.7429 34.257C88.6449 34.635 88.5446 34.95 88.4419 35.202L86.8669 39.276H90.6119ZM93.4399 43H92.3899C92.2686 43 92.1706 42.9697 92.0959 42.909C92.0212 42.8483 91.9652 42.7713 91.9279 42.678L90.9899 40.256H86.4889L85.5509 42.678C85.5229 42.762 85.4692 42.8367 85.3899 42.902C85.3106 42.9673 85.2126 43 85.0959 43H84.0459L88.0569 32.969H89.4289L93.4399 43ZM97.5385 37.827C97.9305 37.827 98.2758 37.7803 98.5745 37.687C98.8778 37.589 99.1298 37.4537 99.3305 37.281C99.5358 37.1037 99.6898 36.8937 99.7925 36.651C99.8952 36.4083 99.9465 36.14 99.9465 35.846C99.9465 35.2487 99.7505 34.7983 99.3585 34.495C98.9665 34.1917 98.3785 34.04 97.5945 34.04H96.1105V37.827H97.5385ZM102.173 43H100.969C100.721 43 100.539 42.9043 100.423 42.713L97.8185 39.129C97.7392 39.017 97.6528 38.9377 97.5595 38.891C97.4708 38.8397 97.3308 38.814 97.1395 38.814H96.1105V43H94.7595V32.969H97.5945C98.2292 32.969 98.7775 33.0343 99.2395 33.165C99.7015 33.291 100.082 33.4753 100.381 33.718C100.684 33.9607 100.908 34.2547 101.053 34.6C101.197 34.9407 101.27 35.3233 101.27 35.748C101.27 36.1027 101.214 36.434 101.102 36.742C100.99 37.05 100.826 37.3277 100.612 37.575C100.402 37.8177 100.143 38.0253 99.8345 38.198C99.5312 38.3707 99.1858 38.5013 98.7985 38.59C98.9712 38.688 99.1205 38.8303 99.2465 39.017L102.173 43ZM111.664 32.969V43H110.985C110.878 43 110.787 42.9813 110.712 42.944C110.642 42.9067 110.572 42.8437 110.502 42.755L104.699 35.195C104.708 35.3117 104.715 35.426 104.72 35.538C104.725 35.65 104.727 35.755 104.727 35.853V43H103.537V32.969H104.237C104.298 32.969 104.349 32.9737 104.391 32.983C104.433 32.9877 104.47 32.9993 104.503 33.018C104.536 33.032 104.568 33.0553 104.601 33.088C104.634 33.116 104.669 33.1533 104.706 33.2L110.509 40.753C110.5 40.6317 110.49 40.515 110.481 40.403C110.476 40.2863 110.474 40.1767 110.474 40.074V32.969H111.664ZM115.586 43H114.228V32.969H115.586V43ZM126.279 32.969V43H125.6C125.493 43 125.402 42.9813 125.327 42.944C125.257 42.9067 125.187 42.8437 125.117 42.755L119.314 35.195C119.323 35.3117 119.33 35.426 119.335 35.538C119.34 35.65 119.342 35.755 119.342 35.853V43H118.152V32.969H118.852C118.913 32.969 118.964 32.9737 119.006 32.983C119.048 32.9877 119.085 32.9993 119.118 33.018C119.151 33.032 119.183 33.0553 119.216 33.088C119.249 33.116 119.284 33.1533 119.321 33.2L125.124 40.753C125.115 40.6317 125.105 40.515 125.096 40.403C125.091 40.2863 125.089 40.1767 125.089 40.074V32.969H126.279ZM136.992 38.177V42.027C136.488 42.391 135.949 42.664 135.375 42.846C134.805 43.0233 134.18 43.112 133.499 43.112C132.691 43.112 131.963 42.9883 131.315 42.741C130.666 42.489 130.111 42.139 129.649 41.691C129.191 41.2383 128.839 40.697 128.591 40.067C128.344 39.437 128.221 38.744 128.221 37.988C128.221 37.2227 128.34 36.525 128.578 35.895C128.82 35.265 129.163 34.726 129.607 34.278C130.05 33.8253 130.589 33.4753 131.224 33.228C131.858 32.9807 132.568 32.857 133.352 32.857C133.748 32.857 134.117 32.8873 134.458 32.948C134.798 33.004 135.113 33.088 135.403 33.2C135.692 33.3073 135.96 33.4403 136.208 33.599C136.455 33.753 136.686 33.928 136.901 34.124L136.516 34.74C136.455 34.8333 136.376 34.894 136.278 34.922C136.184 34.9453 136.079 34.922 135.963 34.852C135.851 34.7867 135.722 34.7073 135.578 34.614C135.433 34.5207 135.256 34.432 135.046 34.348C134.84 34.2593 134.595 34.1847 134.311 34.124C134.031 34.0633 133.697 34.033 133.31 34.033C132.745 34.033 132.234 34.1263 131.777 34.313C131.319 34.495 130.93 34.7587 130.608 35.104C130.286 35.4447 130.038 35.86 129.866 36.35C129.693 36.8353 129.607 37.3813 129.607 37.988C129.607 38.618 129.695 39.1827 129.873 39.682C130.055 40.1767 130.311 40.599 130.643 40.949C130.979 41.2943 131.385 41.558 131.861 41.74C132.337 41.922 132.871 42.013 133.464 42.013C133.93 42.013 134.343 41.9617 134.703 41.859C135.067 41.7517 135.421 41.6047 135.767 41.418V39.213H134.206C134.117 39.213 134.045 39.1873 133.989 39.136C133.937 39.0847 133.912 39.0217 133.912 38.947V38.177H136.992ZM150.8 38.177V42.027C150.296 42.391 149.757 42.664 149.183 42.846C148.614 43.0233 147.988 43.112 147.307 43.112C146.5 43.112 145.772 42.9883 145.123 42.741C144.474 42.489 143.919 42.139 143.457 41.691C143 41.2383 142.647 40.697 142.4 40.067C142.153 39.437 142.029 38.744 142.029 37.988C142.029 37.2227 142.148 36.525 142.386 35.895C142.629 35.265 142.972 34.726 143.415 34.278C143.858 33.8253 144.397 33.4753 145.032 33.228C145.667 32.9807 146.376 32.857 147.16 32.857C147.557 32.857 147.925 32.8873 148.266 32.948C148.607 33.004 148.922 33.088 149.211 33.2C149.5 33.3073 149.769 33.4403 150.016 33.599C150.263 33.753 150.494 33.928 150.709 34.124L150.324 34.74C150.263 34.8333 150.184 34.894 150.086 34.922C149.993 34.9453 149.888 34.922 149.771 34.852C149.659 34.7867 149.531 34.7073 149.386 34.614C149.241 34.5207 149.064 34.432 148.854 34.348C148.649 34.2593 148.404 34.1847 148.119 34.124C147.839 34.0633 147.505 34.033 147.118 34.033C146.553 34.033 146.042 34.1263 145.585 34.313C145.128 34.495 144.738 34.7587 144.416 35.104C144.094 35.4447 143.847 35.86 143.674 36.35C143.501 36.8353 143.415 37.3813 143.415 37.988C143.415 38.618 143.504 39.1827 143.681 39.682C143.863 40.1767 144.12 40.599 144.451 40.949C144.787 41.2943 145.193 41.558 145.669 41.74C146.145 41.922 146.679 42.013 147.272 42.013C147.739 42.013 148.152 41.9617 148.511 41.859C148.875 41.7517 149.23 41.6047 149.575 41.418V39.213H148.014C147.925 39.213 147.853 39.1873 147.797 39.136C147.746 39.0847 147.72 39.0217 147.72 38.947V38.177H150.8ZM158.124 39.276L156.549 35.195C156.502 35.0737 156.453 34.9337 156.402 34.775C156.35 34.6117 156.301 34.439 156.255 34.257C156.157 34.635 156.056 34.95 155.954 35.202L154.379 39.276H158.124ZM160.952 43H159.902C159.78 43 159.682 42.9697 159.608 42.909C159.533 42.8483 159.477 42.7713 159.44 42.678L158.502 40.256H154.001L153.063 42.678C153.035 42.762 152.981 42.8367 152.902 42.902C152.822 42.9673 152.724 43 152.608 43H151.558L155.569 32.969H156.941L160.952 43ZM172.708 32.969V43H171.518V35.629C171.518 35.531 171.521 35.426 171.525 35.314C171.535 35.202 171.544 35.0877 171.553 34.971L168.109 41.243C168.002 41.453 167.839 41.558 167.619 41.558H167.423C167.204 41.558 167.041 41.453 166.933 41.243L163.419 34.943C163.447 35.1903 163.461 35.419 163.461 35.629V43H162.271V32.969H163.272C163.394 32.969 163.487 32.9807 163.552 33.004C163.618 33.0273 163.681 33.0927 163.741 33.2L167.206 39.374C167.262 39.486 167.316 39.6027 167.367 39.724C167.423 39.8453 167.475 39.969 167.521 40.095C167.568 39.969 167.617 39.8453 167.668 39.724C167.72 39.598 167.776 39.479 167.836 39.367L171.238 33.2C171.294 33.0927 171.355 33.0273 171.42 33.004C171.49 32.9807 171.586 32.969 171.707 32.969H172.708ZM181.461 41.894L181.454 43H175.273V32.969H181.454V34.075H176.631V37.407H180.537V38.471H176.631V41.894H181.461ZM188.484 34.537C188.442 34.607 188.396 34.6607 188.344 34.698C188.298 34.7307 188.239 34.747 188.169 34.747C188.09 34.747 187.997 34.7073 187.889 34.628C187.782 34.5487 187.647 34.4623 187.483 34.369C187.325 34.271 187.131 34.1823 186.902 34.103C186.678 34.0237 186.405 33.984 186.083 33.984C185.78 33.984 185.512 34.026 185.278 34.11C185.05 34.1893 184.856 34.299 184.697 34.439C184.543 34.579 184.427 34.7447 184.347 34.936C184.268 35.1227 184.228 35.3257 184.228 35.545C184.228 35.825 184.296 36.0583 184.431 36.245C184.571 36.427 184.753 36.5833 184.977 36.714C185.206 36.8447 185.463 36.959 185.747 37.057C186.037 37.1503 186.331 37.2483 186.629 37.351C186.933 37.4537 187.227 37.5703 187.511 37.701C187.801 37.827 188.057 37.988 188.281 38.184C188.51 38.38 188.692 38.6203 188.827 38.905C188.967 39.1897 189.037 39.5397 189.037 39.955C189.037 40.3937 188.963 40.8067 188.813 41.194C188.664 41.5767 188.445 41.9103 188.155 42.195C187.871 42.4797 187.518 42.7037 187.098 42.867C186.683 43.0303 186.209 43.112 185.677 43.112C185.024 43.112 184.431 42.9953 183.899 42.762C183.367 42.524 182.912 42.2043 182.534 41.803L182.926 41.159C182.964 41.1077 183.008 41.0657 183.059 41.033C183.115 40.9957 183.176 40.977 183.241 40.977C183.302 40.977 183.37 41.0027 183.444 41.054C183.524 41.1007 183.612 41.1613 183.71 41.236C183.808 41.3107 183.92 41.3923 184.046 41.481C184.172 41.5697 184.315 41.6513 184.473 41.726C184.637 41.8007 184.821 41.8637 185.026 41.915C185.232 41.9617 185.463 41.985 185.719 41.985C186.041 41.985 186.328 41.9407 186.58 41.852C186.832 41.7633 187.045 41.6397 187.217 41.481C187.395 41.3177 187.53 41.124 187.623 40.9C187.717 40.676 187.763 40.4263 187.763 40.151C187.763 39.8477 187.693 39.6003 187.553 39.409C187.418 39.213 187.238 39.0497 187.014 38.919C186.79 38.7883 186.534 38.6787 186.244 38.59C185.955 38.4967 185.661 38.4033 185.362 38.31C185.064 38.212 184.77 38.1 184.48 37.974C184.191 37.848 183.934 37.6847 183.71 37.484C183.486 37.2833 183.304 37.0337 183.164 36.735C183.029 36.4317 182.961 36.0583 182.961 35.615C182.961 35.2603 183.029 34.9173 183.164 34.586C183.304 34.2547 183.505 33.9607 183.766 33.704C184.032 33.4473 184.357 33.242 184.739 33.088C185.127 32.934 185.57 32.857 186.069 32.857C186.629 32.857 187.138 32.9457 187.595 33.123C188.057 33.3003 188.463 33.557 188.813 33.893L188.484 34.537Z" fill="#AAAFC1"/>
<defs>
<clipPath id="clip0">
<path d="M0 15C0 13.3431 1.34315 12 3 12H226C227.657 12 229 13.3431 229 15C229 16.6569 227.657 18 226 18H3C1.34315 18 0 16.6569 0 15Z" fill="white"/>
</clipPath>
</defs>
</svg>
