<svg width="100" height="100" viewBox="0 0 100 100" fill="none" xmlns="http://www.w3.org/2000/svg">
<g clip-path="url(#clip0)">
<circle cx="50" cy="53" r="6" fill="#F995C9"/>
<circle cx="50" cy="53" r="4" fill="#FFF71D"/>
<path d="M49.9999 45.5C49.9999 45.5 47.9999 45.5 46.9999 45C41.5962 42.2981 29.4999 28.5 29.9999 20C30.4849 11.7552 39.5 6 49.9999 6C60.4998 6 69.5151 11.7552 70.0001 20C70.5001 28.5 58.4038 42.2981 53.0001 45C52.0001 45.5 49.9999 45.5 49.9999 45.5Z" fill="#C76BC5"/>
<path d="M43.4999 47C44.1817 48.5 43.9999 53.5 40.9999 56.5C37.9999 59.5 18 60.5 13.9999 58C8.62008 54.6377 7.43546 48.9186 8.49987 42C9.45324 35.8032 11.9999 30.5 19.9999 30.5C30.2139 30.5 41.3562 42.2839 43.4999 47Z" fill="#C76BC5"/>
<path d="M56.6446 47C55.9628 48.5 56.1446 53.5 59.1446 56.5C62.1446 59.5 82.1445 60.5 86.1446 58C91.5244 54.6377 92.7091 48.9186 91.6447 42C90.6913 35.8032 88.1446 30.5 80.1446 30.5C69.9306 30.5 58.7883 42.2839 56.6446 47Z" fill="#C76BC5"/>
<path d="M49.0002 63C47.1261 60.7491 45.6959 59.6454 43.0002 58.5C40.5001 59 28.255 61.7448 22.0002 68C18.5004 71.5 15.7535 82.201 21.0002 88C25.5 92 34 94.3849 41.0002 89C48 84 49.5 70 49.0002 63Z" fill="#C76BC5"/>
<path d="M51.0877 63C52.9617 60.7491 54.392 59.6454 57.0877 58.5C59.5878 59 71.8329 61.7448 78.0877 68C81.5875 71.5 84.3344 82.201 79.0877 88C74.5879 92 66.0879 94.3849 59.0877 89C52.0879 84 50.5879 70 51.0877 63Z" fill="#C76BC5"/>
</g>
<defs>
<clipPath id="clip0">
<rect width="100" height="100" fill="white"/>
</clipPath>
</defs>
</svg>
